<svg width="40" height="40" viewBox="0 0 40 40" fill="none" xmlns="http://www.w3.org/2000/svg">
<g clip-path="url(#clip0_494_450)">
<path d="M7.4163 18.749H4.81567V21.3497H7.4163V18.749Z" stroke="#8EC044" stroke-linecap="round" stroke-linejoin="round"/>
<path d="M35.6521 18.7201H33.0515V21.3207H35.6521V18.7201Z" stroke="#8EC044" stroke-linecap="round" stroke-linejoin="round"/>
<path d="M21.7281 4.62036H18.7539V7.59457H21.7281V4.62036Z" stroke="#8EC044" stroke-linecap="round" stroke-linejoin="round"/>
<path d="M6.11727 18.749C6.11727 18.749 5.10979 6.10742 18.754 6.10742H7.60437" stroke="#8EC044" stroke-linecap="round" stroke-linejoin="round"/>
<path d="M34.3651 18.749C34.3651 18.749 35.3725 6.10742 21.7283 6.10742H32.8635" stroke="#8EC044" stroke-linecap="round" stroke-linejoin="round"/>
<path d="M6.11723 7.59457C6.93854 7.59457 7.60434 6.92877 7.60434 6.10747C7.60434 5.28616 6.93854 4.62036 6.11723 4.62036C5.29593 4.62036 4.63013 5.28616 4.63013 6.10747C4.63013 6.92877 5.29593 7.59457 6.11723 7.59457Z" stroke="#8EC044" stroke-linecap="round" stroke-linejoin="round"/>
<path d="M34.3506 7.59457C35.1719 7.59457 35.8377 6.92877 35.8377 6.10747C35.8377 5.28616 35.1719 4.62036 34.3506 4.62036C33.5293 4.62036 32.8635 5.28616 32.8635 6.10747C32.8635 6.92877 33.5293 7.59457 34.3506 7.59457Z" stroke="#8EC044" stroke-linecap="round" stroke-linejoin="round"/>
<path d="M25.2762 33.0055H15.1484V35.5917H25.2762V33.0055Z" stroke="#8EC044" stroke-linecap="round" stroke-linejoin="round"/>
<path d="M25.5025 29.1034H14.9434C14.0156 29.1034 13.2634 29.8555 13.2634 30.7833V31.3256C13.2634 32.2534 14.0156 33.0055 14.9434 33.0055H25.5025C26.4303 33.0055 27.1824 32.2534 27.1824 31.3256V30.7833C27.1824 29.8555 26.4303 29.1034 25.5025 29.1034Z" stroke="#8EC044" stroke-linecap="round" stroke-linejoin="round"/>
<path d="M27.5152 22.1619L24.0517 29.1033H16.3824L12.9189 22.1619L19.1445 11.5979V20.8676C18.5902 21.2267 18.2238 21.8486 18.2238 22.5596C18.2238 23.4104 18.7541 24.1407 19.5013 24.4371C19.7302 24.5287 19.9785 24.5769 20.2388 24.5769C20.4798 24.5769 20.7112 24.5335 20.9257 24.4564C21.7018 24.1768 22.2537 23.4321 22.2537 22.5596C22.2537 21.8293 21.8657 21.1906 21.2848 20.8363V11.5979L27.5104 22.1619H27.5152Z" stroke="#8EC044" stroke-linecap="round" stroke-linejoin="round"/>
</g>
<defs>
<clipPath id="clip0_494_450">
<rect width="40" height="40" fill="white"/>
</clipPath>
</defs>
</svg>
