<svg width="40" height="40" viewBox="0 0 40 40" fill="none" xmlns="http://www.w3.org/2000/svg">
<g clip-path="url(#clip0_508_139)">
<path d="M34.4878 7.90308V20.3446C34.4878 21.6775 33.4081 22.7597 32.0728 22.7597H26.8764L27.0089 22.5331C27.6765 21.3786 27.2813 19.9036 26.1268 19.2335L24.2082 18.1248L21.2051 16.3919L17.2186 14.0901V7.90308C17.2186 6.56782 18.3008 5.48804 19.6336 5.48804H32.0752C33.4105 5.48804 34.4902 6.56782 34.4902 7.90308H34.4878Z" stroke="#8EC044" stroke-linecap="round" stroke-linejoin="round"/>
<path d="M27.0089 22.5307L26.8764 22.7573L20.7881 33.3044C20.1229 34.4589 18.643 34.8566 17.4886 34.1865L6.71728 27.9682C5.56038 27.303 5.1651 25.8255 5.83273 24.6686L12.0511 13.8973C12.7187 12.7404 14.1962 12.3451 15.3507 13.0128L17.2186 14.0901L21.2051 16.3919L24.2082 18.1248L26.1268 19.2335C27.2813 19.9012 27.679 21.3786 27.0089 22.5331V22.5307Z" stroke="#8EC044" stroke-linecap="round" stroke-linejoin="round"/>
<path d="M16.4234 21.481C17.5941 21.4811 18.5436 22.4304 18.5436 23.6011C18.5435 24.7717 17.5941 25.7211 16.4234 25.7212C15.2527 25.7212 14.3034 24.7718 14.3033 23.6011C14.3033 22.4303 15.2527 21.481 16.4234 21.481Z" stroke="#8EC044"/>
<path d="M22.6878 9.72144C23.3686 9.72168 23.9203 10.274 23.9203 10.9548C23.92 11.6354 23.3684 12.187 22.6878 12.1873C22.0071 12.1873 21.4547 11.6356 21.4544 10.9548C21.4544 10.2739 22.0069 9.72144 22.6878 9.72144Z" stroke="#8EC044"/>
<path d="M29.0677 9.72144C29.7484 9.72168 30.3001 10.274 30.3001 10.9548C30.2999 11.6354 29.7483 12.187 29.0677 12.1873C28.3869 12.1873 27.8345 11.6356 27.8343 10.9548C27.8343 10.2739 28.3868 9.72144 29.0677 9.72144Z" stroke="#8EC044"/>
<path d="M22.6875 16.0554C23.3677 16.0555 23.92 16.6101 23.92 17.2888C23.9199 17.3178 23.916 17.3463 23.9141 17.3748L21.9971 16.2683C22.1945 16.1347 22.4318 16.0554 22.6875 16.0554Z" stroke="#8EC044"/>
<path d="M29.0677 16.0554C29.7484 16.0557 30.3001 16.608 30.3001 17.2888C30.2999 17.9694 29.7483 18.521 29.0677 18.5212C28.3869 18.5212 27.8345 17.9695 27.8343 17.2888C27.8343 16.6079 28.3868 16.0554 29.0677 16.0554Z" stroke="#8EC044"/>
</g>
<defs>
<clipPath id="clip0_508_139">
<rect width="40" height="40" fill="white"/>
</clipPath>
</defs>
</svg>
