<svg width="40" height="40" viewBox="0 0 40 40" fill="none" xmlns="http://www.w3.org/2000/svg">
<g clip-path="url(#clip0_494_437)">
<path d="M5.11444 7.20178H34.9963C35.7893 7.20178 36.4328 7.84531 36.4328 8.63827V29.5975H3.67554V8.63827C3.67554 7.84531 4.31907 7.20178 5.11203 7.20178H5.11444Z" stroke="#8EC044" stroke-linecap="round" stroke-linejoin="round"/>
<path d="M37.3004 29.5975H2.69933C2.13094 29.5975 1.67017 30.0583 1.67017 30.6267V31.7667C1.67017 32.3351 2.13094 32.7959 2.69933 32.7959H37.3004C37.8688 32.7959 38.3296 32.3351 38.3296 31.7667V30.6267C38.3296 30.0583 37.8688 29.5975 37.3004 29.5975Z" stroke="#8EC044" stroke-linecap="round" stroke-linejoin="round"/>
<path d="M3.67554 26.1823H36.4304" stroke="#8EC044" stroke-linecap="round" stroke-linejoin="round"/>
<path d="M10.3734 11.2678H15.3625C15.7964 11.2678 16.1483 11.6197 16.1483 12.0536V21.545C16.1483 21.9788 15.7964 22.3307 15.3625 22.3307H10.3734C9.93954 22.3307 9.58765 21.9788 9.58765 21.545V12.0536C9.58765 11.6197 9.93954 11.2678 10.3734 11.2678Z" stroke="#8EC044" stroke-linecap="round" stroke-linejoin="round"/>
<path d="M29.7854 11.2678H24.7987C24.3341 11.2678 23.9575 11.6444 23.9575 12.109V14.3119C23.9575 14.7765 24.3341 15.1531 24.7987 15.1531H29.7854C30.25 15.1531 30.6266 14.7765 30.6266 14.3119V12.109C30.6266 11.6444 30.25 11.2678 29.7854 11.2678Z" stroke="#8EC044" stroke-linecap="round" stroke-linejoin="round"/>
<path d="M29.7854 17.7368H24.7987C24.3341 17.7368 23.9575 18.1134 23.9575 18.578V21.4895C23.9575 21.9541 24.3341 22.3307 24.7987 22.3307H29.7854C30.25 22.3307 30.6266 21.9541 30.6266 21.4895V18.578C30.6266 18.1134 30.25 17.7368 29.7854 17.7368Z" stroke="#8EC044" stroke-linecap="round" stroke-linejoin="round"/>
<path d="M16.1484 13.2129H23.9575" stroke="#8EC044" stroke-linecap="round" stroke-linejoin="round"/>
<path d="M16.1484 19.0769H20V21.0316H23.9575" stroke="#8EC044" stroke-linecap="round" stroke-linejoin="round"/>
</g>
<defs>
<clipPath id="clip0_494_437">
<rect width="40" height="40" fill="white"/>
</clipPath>
</defs>
</svg>
