<svg width="40" height="40" viewBox="0 0 40 40" fill="none" xmlns="http://www.w3.org/2000/svg">
<g clip-path="url(#clip0_494_425)">
<path d="M34.488 7.90308V20.3446C34.488 21.6775 33.4082 22.7597 32.0729 22.7597H26.8765L27.0091 22.5331C27.6767 21.3786 27.2814 19.9036 26.1269 19.2335L24.2084 18.1248L21.2053 16.3919L17.2188 14.0901V7.90308C17.2188 6.56782 18.3009 5.48804 19.6338 5.48804H32.0753C33.4106 5.48804 34.4904 6.56782 34.4904 7.90308H34.488Z" stroke="#8EC044" stroke-linecap="round" stroke-linejoin="round"/>
<path d="M27.009 22.5307L26.8765 22.7573L20.7882 33.3044C20.123 34.4589 18.6431 34.8566 17.4887 34.1865L6.71738 27.9682C5.56048 27.303 5.1652 25.8255 5.83283 24.6686L12.0512 13.8973C12.7188 12.7404 14.1963 12.3451 15.3508 13.0128L17.2187 14.0901L21.2052 16.3919L24.2083 18.1248L26.1269 19.2335C27.2814 19.9012 27.6791 21.3786 27.009 22.5331V22.5307Z" stroke="#8EC044" stroke-linecap="round" stroke-linejoin="round"/>
<path d="M16.4234 26.2208C17.8703 26.2208 19.0433 25.0478 19.0433 23.6009C19.0433 22.1539 17.8703 20.981 16.4234 20.981C14.9764 20.981 13.8035 22.1539 13.8035 23.6009C13.8035 25.0478 14.9764 26.2208 16.4234 26.2208Z" fill="#8EC044"/>
<path d="M22.6875 12.6873C23.6446 12.6873 24.4205 11.9115 24.4205 10.9544C24.4205 9.9973 23.6446 9.22144 22.6875 9.22144C21.7305 9.22144 20.9546 9.9973 20.9546 10.9544C20.9546 11.9115 21.7305 12.6873 22.6875 12.6873Z" fill="#8EC044"/>
<path d="M29.0674 12.6873C30.0245 12.6873 30.8004 11.9115 30.8004 10.9544C30.8004 9.9973 30.0245 9.22144 29.0674 9.22144C28.1103 9.22144 27.3345 9.9973 27.3345 10.9544C27.3345 11.9115 28.1103 12.6873 29.0674 12.6873Z" fill="#8EC044"/>
<path d="M24.4206 17.2885C24.4206 17.5922 24.3434 17.8766 24.2085 18.1224L21.2053 16.3895C21.509 15.8882 22.0609 15.5555 22.6876 15.5555C23.6445 15.5555 24.4206 16.334 24.4206 17.2885Z" fill="#8EC044"/>
<path d="M29.0674 19.0214C30.0245 19.0214 30.8004 18.2456 30.8004 17.2885C30.8004 16.3314 30.0245 15.5555 29.0674 15.5555C28.1103 15.5555 27.3345 16.3314 27.3345 17.2885C27.3345 18.2456 28.1103 19.0214 29.0674 19.0214Z" fill="#8EC044"/>
</g>
<defs>
<clipPath id="clip0_494_425">
<rect width="40" height="40" fill="white"/>
</clipPath>
</defs>
</svg>
