<svg width="40" height="40" viewBox="0 0 40 40" fill="none" xmlns="http://www.w3.org/2000/svg">
<g clip-path="url(#clip0_494_465)">
<path d="M2.54041 18.5056C2.54041 18.5056 3.09235 18.4815 3.98413 18.5683" stroke="#8EC044" stroke-linecap="round" stroke-linejoin="round"/>
<path d="M7.11255 19.1925C9.91804 20.0505 13.3502 21.9643 15.3844 26.2231" stroke="#8EC044" stroke-linecap="round" stroke-linejoin="round" stroke-dasharray="13.26 13.26"/>
<path d="M15.9943 27.6982C16.1509 28.1369 16.2931 28.5997 16.4209 29.0817C16.4209 29.0817 16.5631 28.5635 16.8909 27.7151" stroke="#8EC044" stroke-linecap="round" stroke-linejoin="round"/>
<path d="M18.1105 25.0229C19.3855 22.5789 20.0001 20.6666 22.6668 18.6666" stroke="#8EC044" stroke-linecap="round" stroke-linejoin="round" stroke-dasharray="12.27 12.27"/>
<path d="M25.881 16.2834C26.2835 16.0303 26.7005 15.7893 27.1343 15.5627" stroke="#8EC044" stroke-linecap="round" stroke-linejoin="round"/>
<path d="M31.9861 18.5032C35.0091 18.5032 37.4597 16.0526 37.4597 13.0296C37.4597 10.0066 35.0091 7.55603 31.9861 7.55603C28.9631 7.55603 26.5125 10.0066 26.5125 13.0296C26.5125 16.0526 28.9631 18.5032 31.9861 18.5032Z" stroke="#8EC044" stroke-linecap="round" stroke-linejoin="round"/>
<path d="M8.01648 32.444H25.8039" stroke="#8EC044" stroke-linecap="round" stroke-linejoin="round"/>
</g>
<defs>
<clipPath id="clip0_494_465">
<rect width="40" height="40" fill="white"/>
</clipPath>
</defs>
</svg>
