<svg width="40" height="40" viewBox="0 0 40 40" fill="none" xmlns="http://www.w3.org/2000/svg">
<g clip-path="url(#clip0_494_323)">
<path d="M29.0933 37.8178C26.1267 39.3593 22.4333 40.1801 19.1067 39.9733L18.1533 39.9132C16.48 39.8131 14.1667 39.2258 12.6 38.5852C11.58 38.1715 10.6133 37.711 9.66666 37.1304C7.97333 36.0894 6.44666 34.8548 5.12666 33.3733C2.26666 30.1634 0.473326 26.1795 0.0999927 21.8885L0.0599927 21.3947C-0.026674 20.407 -0.00667401 19.4461 0.073326 18.4584C0.466659 13.2999 2.78666 8.58187 6.63333 5.11173C9.94666 2.1154 13.9733 0.427047 18.42 0.0333197C18.9933 -0.0200671 19.54 0.00662631 20.1133 -4.70329e-05C20.7267 -4.70329e-05 21.2733 -4.70323e-05 21.9 0.060013C26.8667 0.53382 31.48 2.85614 34.8267 6.5465C37.78 9.80309 39.5467 13.9005 39.9267 18.2716C40.06 19.8264 40.0267 21.3947 39.78 22.9496C39.04 27.6743 36.84 31.745 33.28 34.9482C32 36.096 30.62 37.017 29.0933 37.8178ZM10.8867 14.1675C11.66 14.6079 12.6133 14.5545 13.3667 14.0607C14.3133 13.4467 14.7 12.2589 14.2867 11.1645C13.8533 10.01 12.62 9.40269 11.4133 9.70299C10.96 9.81644 10.4933 10.1167 10.22 10.4704C9.24666 11.7117 9.58666 13.4134 10.8867 14.1608V14.1675ZM25.7667 22.4157V29.7964L29.7133 29.8098V20.5138C29.58 18.2782 27.7333 16.3897 25.5 16.2829C24.8933 16.2562 24.3133 16.2562 23.7133 16.2896C22.36 16.363 21.2333 17.077 20.36 18.1715L20.32 16.4164H16.8533C16.7267 16.4164 16.5733 16.3897 16.3933 16.3697V29.8164H20.3333V22.7093C20.3067 21.041 21.7267 19.7664 23.3333 19.8665C24.7533 19.9532 25.6267 21.0276 25.76 22.409L25.7667 22.4157ZM14.0533 29.8164V16.403H10.06V29.8164H14.0533Z" fill="#026839"/>
</g>
<defs>
<clipPath id="clip0_494_323">
<rect width="40" height="40" fill="white"/>
</clipPath>
</defs>
</svg>
