<svg width="40" height="40" viewBox="0 0 40 40" fill="none" xmlns="http://www.w3.org/2000/svg">
<g clip-path="url(#clip0_494_326)">
<path d="M22.7533 39.7935C22.2866 39.8601 20.3466 40.0134 20.0066 40L19.0733 39.9467C18.4466 39.9134 17.8866 39.8801 17.26 39.7935C8.35329 38.5943 1.29995 31.4591 0.166621 22.5583C-0.560046 16.8621 1.14662 11.2525 4.86662 6.93542L5.13995 6.61563C6.93995 4.53036 9.23329 2.90477 11.7933 1.76553C17.6933 -0.852721 24.42 -0.586232 30.1733 2.77819C35.0533 5.62962 38.8533 10.7196 39.7133 16.609L39.8866 17.7749C40.0733 19.0473 40.02 21.0993 39.86 22.4184C38.7866 31.3858 31.7333 38.561 22.76 39.7935H22.7533ZM18.3733 19.3005C19.4866 18.7276 20.1133 17.7948 20.3066 16.6689C20.6333 14.3771 19.2266 12.8448 17.0666 12.3185C16.6666 12.2585 16.2466 12.112 15.82 12.112L7.79329 12.092V27.3685H15.9933C16.9466 27.1819 17.8066 27.0354 18.5933 26.5357C20.1466 25.6763 20.9933 24.0507 20.78 22.2585C20.62 20.9061 19.62 19.8801 18.3733 19.2938V19.3005ZM30.06 15.1366L30.0466 13.6443H24.5266V15.13L27.2133 15.11L30.06 15.1366ZM28.9733 24.6902C28.46 25.0567 27.98 25.07 27.4333 25.0966C25.7533 25.1766 24.9266 23.8908 24.92 22.3185H32.92C33.1266 21.8188 33.06 21.2859 32.9933 20.7462C32.9 19.9867 32.7866 19.2672 32.4733 18.561C31.82 17.082 30.5066 16.056 28.9 15.7695C27.0733 15.4497 24.9333 15.6429 23.4533 16.8755C21.6533 18.3745 21.2133 20.9594 21.5866 23.1513C21.8866 24.8968 22.96 26.4024 24.56 27.122C25.1933 27.4084 25.8066 27.5217 26.4733 27.6216C27.68 27.7948 29.3866 27.515 30.4533 26.9354C31.64 26.2892 32.4733 25.2099 32.8933 23.9108H29.48L28.9666 24.6969L28.9733 24.6902Z" fill="#026839"/>
<path d="M17.1799 22.8048C17.1533 23.5577 16.8199 24.1173 16.1866 24.4571C15.7799 24.6636 15.3266 24.7502 14.8599 24.7968H11.2666V20.6663H14.6599C14.8799 20.7262 15.0799 20.7462 15.3133 20.7529C16.3933 20.8994 17.2266 21.5723 17.1866 22.8048H17.1799Z" fill="#026839"/>
<path d="M16.7866 15.8761C17.06 16.8221 16.56 17.7548 15.5933 17.9547L14.82 18.1146H11.2733V14.6969H14.8933C15.1266 14.6836 15.3533 14.7235 15.5666 14.7968C16.16 14.9101 16.6133 15.2632 16.7933 15.8761H16.7866Z" fill="#026839"/>
<path d="M29.6067 20.3198H24.9667C25.14 19.2139 25.56 18.2079 26.7067 17.9947C27.1867 17.9014 27.6067 17.8948 28.0733 18.0014C29.1467 18.2479 29.5333 19.1673 29.6067 20.3132V20.3198Z" fill="#026839"/>
</g>
<defs>
<clipPath id="clip0_494_326">
<rect width="40" height="40" fill="white"/>
</clipPath>
</defs>
</svg>
