<svg width="40" height="40" viewBox="0 0 40 40" fill="none" xmlns="http://www.w3.org/2000/svg">
<g clip-path="url(#clip0_494_318)">
<path d="M9.1934 13.58C8.08007 15.1934 7.16007 16.92 7.24007 18.9734C7.2934 20.38 7.3934 21.74 7.8334 23.0867C9.12674 27.0534 12.4801 28.3734 16.3334 28.8667C15.5534 29.5934 15.3067 30.52 15.0801 31.48C12.9867 32.5534 10.6801 32.16 9.36674 30.02C8.78674 29.0734 8.02007 28.28 6.94007 27.9467C6.4334 27.7934 5.7534 27.6534 5.34674 28.08C5.22007 28.2267 5.54007 28.6534 5.72674 28.7734C6.80007 29.44 7.66007 30.36 8.10674 31.5734C9.24007 34.64 12.0334 35.26 15.0267 34.6334L15.0534 38.02C15.0534 38.2667 14.9001 38.64 14.7467 38.7734C14.5801 38.92 14.0934 39.12 13.8667 39.0467C4.3734 35.9667 -1.3466 26.46 0.273402 16.7067C1.8734 7.08669 10.2667 -0.0133146 20.0267 1.87479e-05C29.7734 0.0133521 38.1601 7.10669 39.7401 16.7467C41.3201 26.3867 35.6267 35.9667 26.1734 39.0334C25.9001 39.12 25.5467 38.9667 25.3534 38.8334C25.1401 38.6934 24.9734 38.3267 24.9734 38.0067V32.0734C24.9734 30.8534 24.5134 29.74 23.6801 28.8334C27.5934 28.3734 30.9401 27.02 32.2067 23.0267C32.6334 21.7 32.7201 20.36 32.7801 18.9667C32.8667 16.8734 31.8934 15.1267 30.8134 13.5667C31.1001 11.8667 31.3801 9.91335 30.4401 8.27335C28.7334 8.08669 26.5001 9.36002 25.0334 10.34C21.7334 9.47335 18.3267 9.44669 15.0067 10.34C13.5401 9.36669 11.2601 8.05335 9.56674 8.28002C8.64674 9.94669 8.9334 11.8534 9.20007 13.5734L9.1934 13.58Z" fill="#026839"/>
</g>
<defs>
<clipPath id="clip0_494_318">
<rect width="40" height="40" fill="white"/>
</clipPath>
</defs>
</svg>
